<svg width="64" height="64" viewBox="0 0 64 64" fill="none" xmlns="http://www.w3.org/2000/svg">
<g id="uil:bill">
<path id="Vector" d="M25.3333 28H31.9999C32.7072 28 33.3855 27.7191 33.8856 27.219C34.3857 26.7189 34.6666 26.0406 34.6666 25.3334C34.6666 24.6261 34.3857 23.9478 33.8856 23.4477C33.3855 22.9476 32.7072 22.6667 31.9999 22.6667H29.3333V21.3334C29.3333 20.6261 29.0523 19.9478 28.5522 19.4477C28.0521 18.9476 27.3739 18.6667 26.6666 18.6667C25.9594 18.6667 25.2811 18.9476 24.781 19.4477C24.2809 19.9478 23.9999 20.6261 23.9999 21.3334V22.8C22.3797 23.129 20.9396 24.0483 19.959 25.3794C18.9785 26.7105 18.5275 28.3585 18.6937 30.0034C18.8598 31.6482 19.6312 33.1727 20.8582 34.2809C22.0851 35.389 23.68 36.0017 25.3333 36H27.9999C28.3536 36 28.6927 36.1405 28.9427 36.3905C29.1928 36.6406 29.3333 36.9797 29.3333 37.3334C29.3333 37.687 29.1928 38.0261 28.9427 38.2762C28.6927 38.5262 28.3536 38.6667 27.9999 38.6667H21.3333C20.626 38.6667 19.9478 38.9476 19.4477 39.4477C18.9476 39.9478 18.6666 40.6261 18.6666 41.3334C18.6666 42.0406 18.9476 42.7189 19.4477 43.219C19.9478 43.7191 20.626 44 21.3333 44H23.9999V45.3334C23.9999 46.0406 24.2809 46.7189 24.781 47.219C25.2811 47.7191 25.9594 48 26.6666 48C27.3739 48 28.0521 47.7191 28.5522 47.219C29.0523 46.7189 29.3333 46.0406 29.3333 45.3334V43.8667C30.9535 43.5377 32.3936 42.6184 33.3742 41.2873C34.3547 39.9562 34.8057 38.3083 34.6396 36.6634C34.4734 35.0185 33.702 33.494 32.4751 32.3859C31.2481 31.2777 29.6532 30.665 27.9999 30.6667H25.3333C24.9797 30.6667 24.6405 30.5262 24.3905 30.2762C24.1404 30.0261 23.9999 29.687 23.9999 29.3334C23.9999 28.9797 24.1404 28.6406 24.3905 28.3905C24.6405 28.1405 24.9797 28 25.3333 28ZM55.9999 32H47.9999V8.00002C48.0018 7.53013 47.8795 7.06808 47.6453 6.66068C47.4112 6.25327 47.0736 5.91496 46.6666 5.68002C46.2612 5.44597 45.8014 5.32275 45.3333 5.32275C44.8652 5.32275 44.4053 5.44597 43.9999 5.68002L35.9999 10.2667L27.9999 5.68002C27.5946 5.44597 27.1347 5.32275 26.6666 5.32275C26.1985 5.32275 25.7387 5.44597 25.3333 5.68002L17.3333 10.2667L9.33327 5.68002C8.92789 5.44597 8.46804 5.32275 7.99994 5.32275C7.53184 5.32275 7.07199 5.44597 6.66661 5.68002C6.25966 5.91496 5.92202 6.25327 5.68788 6.66068C5.45374 7.06808 5.33141 7.53013 5.33327 8.00002V50.6667C5.33327 52.7884 6.17613 54.8233 7.67642 56.3235C9.17671 57.8238 11.2115 58.6667 13.3333 58.6667H50.6666C52.7883 58.6667 54.8232 57.8238 56.3235 56.3235C57.8238 54.8233 58.6666 52.7884 58.6666 50.6667V34.6667C58.6666 33.9594 58.3857 33.2812 57.8856 32.7811C57.3855 32.281 56.7072 32 55.9999 32ZM13.3333 53.3334C12.626 53.3334 11.9478 53.0524 11.4477 52.5523C10.9476 52.0522 10.6666 51.3739 10.6666 50.6667V12.6134L15.9999 15.6534C16.4115 15.8683 16.8689 15.9806 17.3333 15.9806C17.7976 15.9806 18.255 15.8683 18.6666 15.6534L26.6666 11.0667L34.6666 15.6534C35.0782 15.8683 35.5356 15.9806 35.9999 15.9806C36.4643 15.9806 36.9217 15.8683 37.3333 15.6534L42.6666 12.6134V50.6667C42.6738 51.5764 42.8361 52.4782 43.1466 53.3334H13.3333ZM53.3333 50.6667C53.3333 51.3739 53.0523 52.0522 52.5522 52.5523C52.0521 53.0524 51.3739 53.3334 50.6666 53.3334C49.9594 53.3334 49.2811 53.0524 48.781 52.5523C48.2809 52.0522 47.9999 51.3739 47.9999 50.6667V37.3334H53.3333V50.6667Z" fill="black"/>
</g>
</svg>
