<svg width="64" height="64" viewBox="0 0 64 64" fill="none" xmlns="http://www.w3.org/2000/svg">
<g id="mdi:court-hammer">
<path id="Vector" d="M6.13333 54.08L31.7333 28.48L28 24.6934L26.08 26.5867C25.8333 26.8339 25.5403 27.03 25.2177 27.1639C24.8951 27.2977 24.5492 27.3665 24.2 27.3665C23.8507 27.3665 23.5049 27.2977 23.1823 27.1639C22.8597 27.03 22.5667 26.8339 22.32 26.5867L20.4267 24.6934C20.1795 24.4467 19.9833 24.1536 19.8495 23.831C19.7157 23.5084 19.6468 23.1626 19.6468 22.8134C19.6468 22.4641 19.7157 22.1183 19.8495 21.7957C19.9833 21.4731 20.1795 21.1801 20.4267 20.9334L35.52 5.84003C35.7667 5.59282 36.0597 5.3967 36.3823 5.26288C36.7049 5.12906 37.0508 5.06018 37.4 5.06018C37.7492 5.06018 38.0951 5.12906 38.4177 5.26288C38.7403 5.3967 39.0333 5.59282 39.28 5.84003L41.1733 7.73337C42.2133 8.77337 42.2133 10.4534 41.1733 11.4934L39.28 13.3334L43.0667 17.1467C43.3134 16.8995 43.6064 16.7034 43.929 16.5695C44.2516 16.4357 44.5974 16.3668 44.9467 16.3668C45.2959 16.3668 45.6417 16.4357 45.9643 16.5695C46.2869 16.7034 46.58 16.8995 46.8267 17.1467C47.8667 18.1867 47.8667 19.8934 46.8267 20.9334L50.5867 24.6934L52.48 22.8C53.52 21.76 55.2267 21.76 56.2667 22.8L58.1333 24.6934C59.1733 25.7334 59.1733 27.44 58.1333 28.48L43.0667 43.5467C42.0267 44.5867 40.32 44.5867 39.28 43.5467L37.4133 41.68C37.1601 41.434 36.9588 41.1396 36.8214 40.8144C36.684 40.4892 36.6131 40.1398 36.6131 39.7867C36.6131 39.4336 36.684 39.0842 36.8214 38.759C36.9588 38.4337 37.1601 38.1394 37.4133 37.8934L39.28 36L35.52 32.24L9.89333 57.8667C9.64663 58.1139 9.35359 58.31 9.031 58.4439C8.7084 58.5777 8.36258 58.6465 8.01333 58.6465C7.66408 58.6465 7.31826 58.5777 6.99567 58.4439C6.67307 58.31 6.38004 58.1139 6.13333 57.8667C5.09333 56.8267 5.09333 55.12 6.13333 54.08ZM53.3333 50.6667C54.7478 50.6667 56.1044 51.2286 57.1046 52.2288C58.1048 53.229 58.6667 54.5855 58.6667 56V58.6667H32V56C32 54.5855 32.5619 53.229 33.5621 52.2288C34.5623 51.2286 35.9188 50.6667 37.3333 50.6667H53.3333Z" fill="black"/>
</g>
</svg>
