<svg width="64" height="64" viewBox="0 0 64 64" fill="none" xmlns="http://www.w3.org/2000/svg">
<g id="streamline:legal-justice-scale-1-office-work-legal-scale-justice-company-arbitration-balance-court">
<path id="Vector" d="M6.85713 18.2904H57.1428M32 18.2904V9.34412M25.1428 42.8925L13.7143 18.2904L2.28571 42.8925C2.28571 45.8584 3.48978 48.7028 5.63306 50.7999C7.77633 52.8971 10.6832 54.0753 13.7143 54.0753C16.7453 54.0753 19.6522 52.8971 21.7955 50.7999C23.9388 48.7028 25.1428 45.8584 25.1428 42.8925ZM61.7143 42.8925L50.2857 18.2904L38.8571 42.8925C38.8571 45.8584 40.0612 48.7028 42.2045 50.7999C44.3478 52.8971 47.2547 54.0753 50.2857 54.0753C53.3167 54.0753 56.2236 52.8971 58.3669 50.7999C60.5102 48.7028 61.7143 45.8584 61.7143 42.8925Z" stroke="black" stroke-linecap="round" stroke-linejoin="round"/>
</g>
</svg>
